<?xml version="1.0" encoding="utf-8"?>
<!-- Generator: Adobe Illustrator 22.0.0, SVG Export Plug-In . SVG Version: 6.00 Build 0)  -->
<svg version="1.1" id="Layer_1" xmlns="http://www.w3.org/2000/svg" xmlns:xlink="http://www.w3.org/1999/xlink" x="0px" y="0px"
	 viewBox="0 0 70 70" style="enable-background:new 0 0 70 70;" xml:space="preserve">
<style type="text/css">
	.st0{fill:#FFFFFF;}
</style>
<path class="st0" d="M70,41.6l-6.6,6.6l-6.6-6.6l-6.6,6.6l-6.6-6.6l6.6-6.6l-6.6-6.6l6.6-6.6l6.6,6.6l6.6-6.6l6.6,6.6L63.4,35
	L70,41.6z M35,70L17.5,52.5H4.4c-2.6,0-4.4-1.7-4.4-4.4V21.9c0-2.6,1.8-4.4,4.4-4.4h13.1L35,0c0,0,4.4-0.9,4.4,4.4
	c0,23.6,0,58.2,0,61.3C39.4,70.9,35,70,35,70z M30.6,17.5l-8.8,8.3H8.8v17.5h13.1l8.8,8.8V17.5L30.6,17.5z"/>
</svg>
