<?xml version="1.0" encoding="utf-8"?>
<!-- Generator: Adobe Illustrator 22.0.0, SVG Export Plug-In . SVG Version: 6.00 Build 0)  -->
<svg version="1.1" id="Layer_1" xmlns="http://www.w3.org/2000/svg" xmlns:xlink="http://www.w3.org/1999/xlink" x="0px" y="0px"
	 viewBox="0 0 70 70" style="enable-background:new 0 0 70 70;" xml:space="preserve">
<style type="text/css">
	.st0{fill:#FFFFFF;}
</style>
<path class="st0" d="M43.7,68.7v-9.2C53.8,56,61.2,46.4,61.2,35s-7.4-21-17.5-24.5V0.9C58.6,4.9,70,18.4,70,34.6S59,64.3,43.7,68.7z
	 M35,70L17.5,52.5H4.4c-2.6,0-4.4-1.7-4.4-4.4V21.9c0-2.6,1.7-4.4,4.4-4.4h13.1L35,0c0,0,4.4-0.9,4.4,4.4c0,9.6,0,52,0,60.8
	C39.4,70.9,35,70,35,70z M30.6,17.5l-8.7,8.7H8.8v17.1h13.1l8.7,8.7V17.5L30.6,17.5z M56.9,35c0,7.9-5.2,14.9-13.1,16.6V42
	c2.6-1.3,4.4-4.4,4.4-7.4s-1.7-6.1-4.4-7.4v-9.6C51.2,20.2,56.9,26.7,56.9,35z"/>
</svg>
