<?xml version="1.0" encoding="utf-8"?>
<!-- Generator: Adobe Illustrator 22.0.0, SVG Export Plug-In . SVG Version: 6.00 Build 0)  -->
<svg version="1.1" id="Layer_1" xmlns="http://www.w3.org/2000/svg" xmlns:xlink="http://www.w3.org/1999/xlink" x="0px" y="0px"
	 viewBox="0 0 19.2 28" style="enable-background:new 0 0 19.2 28;" xml:space="preserve">
<style type="text/css">
	.st0{fill:#FFFFFF;}
</style>
<path class="st0" d="M19.2,16.2L17.4,18l-1.8-1.8L13.8,18L12,16.2l1.8-1.8L12,12.6l1.8-1.8l1.8,1.8l1.8-1.8l1.8,1.8l-1.8,1.8
	L19.2,16.2z M9.6,24l-4.8-4.8H1.2C0.5,19.2,0,18.7,0,18v-7.2c0-0.7,0.5-1.2,1.2-1.2h3.6l4.8-4.8c0,0,1.2-0.2,1.2,1.2
	c0,6.5,0,16,0,16.8C10.8,24.2,9.6,24,9.6,24z M8.4,9.6L6,11.9H2.4v4.8H6l2.4,2.4V9.6L8.4,9.6z"/>
</svg>
