<?xml version="1.0" encoding="utf-8"?>
<!-- Generator: Adobe Illustrator 22.0.0, SVG Export Plug-In . SVG Version: 6.00 Build 0)  -->
<svg version="1.1" id="Layer_1" xmlns="http://www.w3.org/2000/svg" xmlns:xlink="http://www.w3.org/1999/xlink" x="0px" y="0px"
	 viewBox="0 0 19.2 28" style="enable-background:new 0 0 19.2 28;" xml:space="preserve">
<style type="text/css">
	.st0{fill:#FFFFFF;}
</style>
<path class="st0" d="M12,23v-2.5c2.8-1,4.8-3.6,4.8-6.8c0-3.1-2-5.8-4.8-6.8V4.3c4.1,1.1,7.2,4.8,7.2,9.3S16.2,21.8,12,23z
	 M9.6,23.3l-4.8-4.8H1.2C0.5,18.5,0,18,0,17.3V10c0-0.7,0.5-1.2,1.2-1.2h3.6L9.6,4c0,0,1.2-0.2,1.2,1.2c0,2.7,0,14.3,0,16.8
	C10.8,23.5,9.6,23.3,9.6,23.3z M8.4,8.8L6,11.3H2.4V16H6l2.4,2.4V8.8L8.4,8.8z M15.6,13.6c0,2.2-1.5,4.1-3.6,4.6v-2.6
	c0.7-0.4,1.2-1.2,1.2-2.1c0-0.9-0.5-1.7-1.2-2.1V8.8C14.1,9.6,15.6,11.4,15.6,13.6z"/>
</svg>
