<?xml version="1.0" encoding="utf-8"?>
<!-- Generator: Adobe Illustrator 22.0.0, SVG Export Plug-In . SVG Version: 6.00 Build 0)  -->
<svg version="1.1" id="Layer_1" xmlns="http://www.w3.org/2000/svg" xmlns:xlink="http://www.w3.org/1999/xlink" x="0px" y="0px"
	 viewBox="0 0 70 70" style="enable-background:new 0 0 70 70;" xml:space="preserve">
<style type="text/css">
	.st0{fill:#FFFFFF;}
</style>
<g>
	<path class="st0" d="M56.9,17.5c0,7-3.5,13.1-10.1,18.4c-2.2,1.8-3.9,3.5-4.8,4.8s-1.3,3.1-1.3,4.8v1.7H25v-3.9
		c0-5.7,1.8-10.1,5.7-13.6c2.6-2.2,3.9-3.5,4.8-4.4c0.9-0.9,1.3-1.3,1.3-2.2c0.4-0.4,0.4-1.3,0.4-2.6c0-1.3-0.4-2.2-1.8-3.1
		c-0.9-0.4-2.2-0.9-3.9-0.9c-4.8,0-10.1,2.2-15.7,6.1V4.4c2.2-1.3,4.8-2.2,8.3-3.1S30.7,0,33.3,0c7.4,0,13.6,1.3,17.5,4.4
		S56.9,11.8,56.9,17.5z M44.2,60.4c0,2.6-0.9,5.3-3.1,7C39,69.1,36.8,70,33.3,70c-3.1,0-6.1-0.9-7.9-2.6c-2.2-1.8-3.1-3.9-3.1-6.6
		c0-2.6,0.9-4.8,3.1-6.6c2.2-1.8,4.8-2.6,7.9-2.6c3.5,0,6.1,0.9,7.9,2.6C43.4,55.6,44.2,57.8,44.2,60.4z"/>
</g>
</svg>
